<svg width="48" height="48" viewBox="0 0 48 48" fill="none" xmlns="http://www.w3.org/2000/svg">
<path d="M3.02631 5.17084H14.5059C15.2577 5.17084 15.9522 5.57243 16.3273 6.22392L18.2167 8.80497C18.5918 9.45646 19.2864 9.85806 20.0381 9.85806H47.9999V39.3263C47.9999 40.8739 46.7452 42.1286 45.1975 42.1286H2.80235C1.2547 42.1286 0 40.8739 0 39.3263V13.127C0 10.9609 0.334662 8.80764 0.992199 6.7437C1.23307 5.81741 2.06927 5.17084 3.02631 5.17084Z" fill="#1B1D28"/>
<path d="M41.2639 9.37604H4.36792V24.962H41.2639V9.37604Z" fill="white"/>
<path d="M45.8982 7H34.33C33.5073 7 32.7602 7.48001 32.4184 8.22826L30.4388 12.5606C30.0968 13.3089 29.3498 13.7889 28.5272 13.7889H0V40.4547C0 42.0024 1.2547 43.2571 2.80235 43.2571H45.1977C46.7453 43.2571 48 42.0024 48 40.4547V9.10176C48 7.94105 47.0589 7 45.8982 7Z" fill="#00BCD4"/>
</svg>
