<svg width="27" height="27" viewBox="0 0 27 27" fill="none" xmlns="http://www.w3.org/2000/svg">
<path fill-rule="evenodd" clip-rule="evenodd" d="M26.3401 13.9807C26.3401 13.0589 26.2574 12.1726 26.1037 11.3217H13.8601V16.3503H20.8565C20.5551 17.9753 19.6392 19.3521 18.2624 20.2739V23.5357H22.4637C24.9219 21.2726 26.3401 17.9398 26.3401 13.9807Z" fill="#4285F4"/>
<path fill-rule="evenodd" clip-rule="evenodd" d="M13.8602 26.6853C17.3702 26.6853 20.3129 25.5212 22.4638 23.5357L18.2625 20.2739C17.0984 21.0539 15.6093 21.5148 13.8602 21.5148C10.4743 21.5148 7.60837 19.228 6.5861 16.1553H2.24292V19.5235C4.38201 23.7721 8.77837 26.6853 13.8602 26.6853Z" fill="#34A853"/>
<path fill-rule="evenodd" clip-rule="evenodd" d="M6.58601 16.1553C6.32601 15.3753 6.17829 14.5422 6.17829 13.6853C6.17829 12.8285 6.32601 11.9953 6.58601 11.2153V7.84717H2.24283C1.36238 9.60217 0.860107 11.5876 0.860107 13.6853C0.860107 15.7831 1.36238 17.7685 2.24283 19.5235L6.58601 16.1553Z" fill="#FBBC05"/>
<path fill-rule="evenodd" clip-rule="evenodd" d="M13.8602 5.85576C15.7688 5.85576 17.4825 6.51167 18.8297 7.79985L22.5584 4.07121C20.307 1.97348 17.3643 0.685303 13.8602 0.685303C8.77837 0.685303 4.38201 3.59848 2.24292 7.84712L6.5861 11.2153C7.60837 8.14257 10.4743 5.85576 13.8602 5.85576Z" fill="#EA4335"/>
</svg>
