<svg width="273" height="32" viewBox="0 0 273 32" fill="none" xmlns="http://www.w3.org/2000/svg">
<path d="M95.4627 28.833C92.5057 28.833 90.0908 28.4881 88.1194 27.7981C86.1973 27.1081 84.7188 26.1717 83.7824 24.9889C82.846 23.8061 82.3039 22.5247 82.2546 21.0954H87.7744C87.8237 21.8347 88.0701 22.5247 88.563 23.0668C89.0558 23.6582 89.8444 24.1018 90.9779 24.3975C92.1114 24.7425 93.5899 24.8903 95.4627 24.8903C97.7791 24.8903 99.504 24.6439 100.588 24.2003C101.672 23.7568 102.215 23.0668 102.215 22.1304V22.0811C102.215 21.539 102.067 21.1447 101.82 20.7998C101.574 20.5041 100.983 20.2083 100.095 19.9619C99.2083 19.7155 97.8776 19.4691 96.0541 19.272C95.857 19.2227 95.6106 19.2227 95.3642 19.1734C95.1177 19.1241 94.8713 19.1241 94.6249 19.1241C94.477 19.1241 94.3292 19.0748 94.2306 19.0748C94.0828 19.0748 93.9842 19.0748 93.8363 19.0255C90.9779 18.7298 88.7601 18.237 87.2323 17.5963C85.6552 16.9556 84.6203 16.2164 84.0289 15.3292C83.4375 14.4421 83.191 13.4072 83.191 12.1751V12.2243C83.191 11.0415 83.5853 9.95729 84.3739 9.0209C85.1624 8.0845 86.3945 7.34525 88.1687 6.75385C89.8936 6.16244 92.1607 5.91602 94.9206 5.91602C98.9619 5.91602 102.017 6.606 104.087 7.98595C106.157 9.36589 107.291 11.2387 107.537 13.6043H102.215C102.017 12.4708 101.426 11.5344 100.342 10.8444C99.2576 10.1544 97.5819 9.80944 95.2163 9.80944C93.7378 9.80944 92.555 9.90801 91.6186 10.1544C90.7315 10.3516 90.0415 10.6473 89.6472 11.0415C89.2529 11.4358 89.0558 11.8794 89.0558 12.3722C89.0558 12.8158 89.1544 13.21 89.4008 13.555C89.5979 13.9 90.0908 14.1464 90.83 14.4421C91.5693 14.6885 92.6535 14.935 94.1321 15.0828C94.3292 15.0828 94.5263 15.1321 94.7235 15.1321C94.9206 15.1814 95.1177 15.1814 95.3149 15.1814C98.9126 15.5264 101.672 16.0192 103.545 16.6599C105.418 17.3006 106.65 18.0891 107.242 18.927C107.833 19.7648 108.129 20.7505 108.129 21.9333C108.129 23.4611 107.636 24.7425 106.699 25.7281C105.763 26.7631 104.334 27.5024 102.51 27.9952C100.44 28.5866 98.1733 28.833 95.4627 28.833Z" fill="#00BCD4"/>
<path d="M112.219 28.2909V6.50745H117.887V28.2909H112.219Z" fill="#00BCD4"/>
<path d="M124.047 28.2909V6.50745H129.715V24.2496H145.437V28.3402H124.047V28.2909Z" fill="#00BCD4"/>
<path d="M149.478 28.2909V6.50745H155.145V15.1814H160.764L167.91 6.50745H174.711L165.544 17.1528V17.3006L175.943 28.3402H169.191L160.764 19.272H155.195V28.3402H149.478V28.2909Z" fill="#00BCD4"/>
<path d="M185.011 28.2909L176.485 6.50745H182.498L188.511 23.3132L188.708 24.0525H188.757L189.003 23.3132L195.065 6.55672H200.881L206.943 23.3132L207.189 24.0525H207.238L207.436 23.3132L213.448 6.50745H219.461L210.935 28.2909H203.936L198.17 11.9287L198.022 11.4358H197.973L197.825 11.9287L192.059 28.2416H185.011V28.2909Z" fill="black"/>
<path d="M217.292 28.2909L228.923 6.50745H236.513L248.243 28.2909H241.885L233.014 10.3516L232.768 9.85875H232.718L232.521 10.3516L223.65 28.2909H217.292ZM223.995 23.5104L224.734 19.7648H240.407L241.392 23.5104H223.995Z" fill="black"/>
<path d="M255.093 28.2909V21.8347L242.822 6.50745H249.82L257.557 16.9063L257.902 17.4977L258.297 16.9063L265.985 6.50745H272.983L260.761 21.8347V28.2909H255.093Z" fill="black"/>
<path d="M36.2235 1.62833L34.0058 6.85242C33.8086 7.29598 33.4143 7.59168 32.9215 7.59168H8.77242C8.13173 7.59168 7.5896 7.04956 7.5896 6.40887V1.18478C7.5896 0.544085 8.13173 0.00196471 8.77242 0.00196471H35.1393C35.9771 -0.0473192 36.5685 0.839785 36.2235 1.62833Z" fill="black"/>
<path d="M64.414 2.56478V30.8044C64.414 31.8394 63.2312 32.3815 62.4426 31.6916L46.7211 17.8428C46.2775 17.4485 45.5876 17.4485 45.144 17.8428L36.9136 25.0875L29.4225 31.6916C29.176 31.8887 29.2253 31.9873 28.6339 31.9873H1.77422C0.936393 31.9873 0.344988 31.1001 0.689975 30.3609L2.90775 25.1368C3.10488 24.6932 3.49915 24.3975 3.99199 24.3975H28.1411C28.7818 24.3975 29.3239 23.8554 29.3239 23.2147V20.3563C29.3239 19.5677 28.6832 18.927 27.8947 18.927H3.54844C1.57708 18.927 0 17.35 0 15.3786V12.7665C0 11.978 0.640691 11.3373 1.42923 11.3373H33.3652C35.3365 11.3373 36.9136 12.9144 36.9136 14.8858C36.9629 14.8858 36.9629 14.8365 37.0122 14.8365L45.144 7.64102C45.5876 7.24675 46.2775 7.24675 46.7211 7.64102L54.8036 14.8365C55.5922 15.5264 56.775 14.9843 56.775 13.9494V2.8112C56.775 2.02266 57.4157 1.38196 58.2042 1.38196H63.1819C63.8719 1.38196 64.414 1.92409 64.414 2.56478Z" fill="black"/>
</svg>
