<svg width="40" height="41" viewBox="0 0 40 41" fill="none" xmlns="http://www.w3.org/2000/svg">
<path d="M0 20.6853C0 9.63961 8.95431 0.685303 20 0.685303C31.0457 0.685303 40 9.63961 40 20.6853C40 31.731 31.0457 40.6853 20 40.6853C8.95431 40.6853 0 31.731 0 20.6853Z" fill="url(#paint0_linear_35_1493)"/>
<path fill-rule="evenodd" clip-rule="evenodd" d="M9.05344 20.4742C14.8838 17.934 18.7717 16.2593 20.717 15.4502C26.2712 13.14 27.4253 12.7387 28.1776 12.7255C28.343 12.7226 28.7129 12.7636 28.9526 12.958C29.1549 13.1222 29.2106 13.344 29.2372 13.4996C29.2639 13.6553 29.297 14.0099 29.2707 14.287C28.9697 17.4494 27.6673 25.1239 27.0047 28.6659C26.7244 30.1647 26.1724 30.6672 25.6379 30.7164C24.4765 30.8233 23.5946 29.9488 22.4696 29.2115C20.7094 28.0576 19.7149 27.3393 18.0063 26.2133C16.0317 24.9121 17.3118 24.1969 18.4371 23.0281C18.7316 22.7222 23.8489 18.0676 23.948 17.6454C23.9603 17.5925 23.9718 17.3957 23.8549 17.2918C23.738 17.1878 23.5654 17.2234 23.4408 17.2516C23.2643 17.2917 20.4522 19.1503 15.0047 22.8276C14.2065 23.3757 13.4835 23.6427 12.8358 23.6287C12.1217 23.6133 10.748 23.225 9.72685 22.893C8.47435 22.4859 7.47888 22.2706 7.56556 21.5792C7.61071 21.219 8.10667 20.8507 9.05344 20.4742Z" fill="white"/>
<defs>
<linearGradient id="paint0_linear_35_1493" x1="20" y1="0.685303" x2="20" y2="40.3886" gradientUnits="userSpaceOnUse">
<stop stop-color="#2AABEE"/>
<stop offset="1" stop-color="#229ED9"/>
</linearGradient>
</defs>
</svg>
