<svg width="40" height="41" viewBox="0 0 40 41" fill="none" xmlns="http://www.w3.org/2000/svg">
<g clip-path="url(#clip0_35_1491)">
<path d="M0 20.6853C0 9.63961 8.95431 0.685303 20 0.685303C31.0457 0.685303 40 9.63961 40 20.6853C40 31.731 31.0457 40.6853 20 40.6853C8.95431 40.6853 0 31.731 0 20.6853Z" fill="#1877F2"/>
<path d="M27.7852 26.4666L28.6719 20.6853H23.125V16.9353C23.125 15.3533 23.8984 13.8103 26.3828 13.8103H28.9062V8.88843C28.9062 8.88843 26.6172 8.4978 24.4297 8.4978C19.8594 8.4978 16.875 11.2673 16.875 16.2791V20.6853H11.7969V26.4666H16.875V40.4431C17.8945 40.6033 18.9375 40.6853 20 40.6853C21.0625 40.6853 22.1055 40.6033 23.125 40.4431V26.4666H27.7852Z" fill="white"/>
</g>
<defs>
<clipPath id="clip0_35_1491">
<path d="M0 20.6853C0 9.63961 8.95431 0.685303 20 0.685303C31.0457 0.685303 40 9.63961 40 20.6853C40 31.731 31.0457 40.6853 20 40.6853C8.95431 40.6853 0 31.731 0 20.6853Z" fill="white"/>
</clipPath>
</defs>
</svg>
