<svg width="40" height="41" viewBox="0 0 40 41" fill="none" xmlns="http://www.w3.org/2000/svg">
<path d="M0 20.6853C0 9.63961 8.95431 0.685303 20 0.685303C31.0457 0.685303 40 9.63961 40 20.6853C40 31.731 31.0457 40.6853 20 40.6853C8.95431 40.6853 0 31.731 0 20.6853Z" fill="white"/>
<path fill-rule="evenodd" clip-rule="evenodd" d="M32.3401 20.9807C32.3401 20.0589 32.2574 19.1726 32.1037 18.3217H19.8601V23.3503H26.8565C26.5551 24.9753 25.6392 26.3521 24.2624 27.2739V30.5357H28.4637C30.9219 28.2726 32.3401 24.9398 32.3401 20.9807Z" fill="#4285F4"/>
<path fill-rule="evenodd" clip-rule="evenodd" d="M19.8602 33.6853C23.3702 33.6853 26.3129 32.5212 28.4638 30.5357L24.2625 27.2739C23.0984 28.0539 21.6093 28.5148 19.8602 28.5148C16.4743 28.5148 13.6084 26.228 12.5861 23.1553H8.24292V26.5235C10.382 30.7721 14.7784 33.6853 19.8602 33.6853Z" fill="#34A853"/>
<path fill-rule="evenodd" clip-rule="evenodd" d="M12.586 23.1553C12.326 22.3753 12.1783 21.5422 12.1783 20.6853C12.1783 19.8285 12.326 18.9953 12.586 18.2153V14.8472H8.24283C7.36238 16.6022 6.86011 18.5876 6.86011 20.6853C6.86011 22.7831 7.36238 24.7685 8.24283 26.5235L12.586 23.1553Z" fill="#FBBC05"/>
<path fill-rule="evenodd" clip-rule="evenodd" d="M19.8602 12.8558C21.7688 12.8558 23.4825 13.5117 24.8297 14.7998L28.5584 11.0712C26.307 8.97348 23.3643 7.6853 19.8602 7.6853C14.7784 7.6853 10.382 10.5985 8.24292 14.8471L12.5861 18.2153C13.6084 15.1426 16.4743 12.8558 19.8602 12.8558Z" fill="#EA4335"/>
</svg>
