<svg width="40" height="41" viewBox="0 0 40 41" fill="none" xmlns="http://www.w3.org/2000/svg">
<path d="M0 20.6853C0 9.63961 8.95431 0.685303 20 0.685303C31.0457 0.685303 40 9.63961 40 20.6853C40 31.731 31.0457 40.6853 20 40.6853C8.95431 40.6853 0 31.731 0 20.6853Z" fill="url(#paint0_linear_35_1501)"/>
<path d="M20.0033 10.8484C23.2098 10.8484 23.5862 10.8626 24.8535 10.9198C26.0255 10.9722 26.6592 11.1676 27.0832 11.3343C27.6454 11.5535 28.0457 11.8108 28.4649 12.23C28.8842 12.6493 29.1462 13.0495 29.3606 13.6117C29.5226 14.0358 29.7227 14.6694 29.7751 15.8415C29.8323 17.1088 29.8466 17.4852 29.8466 20.6917C29.8466 23.8981 29.8323 24.2745 29.7751 25.5418C29.7227 26.7139 29.5274 27.3476 29.3606 27.7716C29.1415 28.3338 28.8842 28.734 28.4649 29.1533C28.0457 29.5725 27.6454 29.8346 27.0832 30.049C26.6592 30.211 26.0255 30.4111 24.8535 30.4635C23.5862 30.5207 23.2098 30.535 20.0033 30.535C16.7968 30.535 16.4205 30.5207 15.1531 30.4635C13.9811 30.4111 13.3474 30.2157 12.9234 30.049C12.3612 29.8298 11.9609 29.5725 11.5417 29.1533C11.1224 28.734 10.8604 28.3338 10.646 27.7716C10.484 27.3476 10.2839 26.7139 10.2315 25.5418C10.1743 24.2745 10.16 23.8981 10.16 20.6917C10.16 17.4852 10.1743 17.1088 10.2315 15.8415C10.2839 14.6694 10.4792 14.0358 10.646 13.6117C10.8651 13.0495 11.1224 12.6493 11.5417 12.23C11.9609 11.8108 12.3612 11.5487 12.9234 11.3343C13.3474 11.1723 13.9811 10.9722 15.1531 10.9198C16.4205 10.8579 16.8016 10.8484 20.0033 10.8484ZM20.0033 8.6853C16.7444 8.6853 16.3347 8.6996 15.0531 8.75677C13.7762 8.81394 12.9043 9.01881 12.142 9.31421C11.3511 9.61913 10.6841 10.0336 10.0171 10.7007C9.35004 11.3677 8.9403 12.0395 8.63061 12.8256C8.33522 13.5879 8.13035 14.4598 8.07318 15.7414C8.016 17.0183 8.00171 17.428 8.00171 20.6869C8.00171 23.9458 8.016 24.3555 8.07318 25.6371C8.13035 26.914 8.33522 27.7859 8.63061 28.553C8.93554 29.3439 9.35004 30.0109 10.0171 30.6779C10.6841 31.3449 11.3559 31.7547 12.142 32.0643C12.9043 32.3597 13.7762 32.5646 15.0578 32.6218C16.3395 32.6789 16.7444 32.6932 20.0081 32.6932C23.2717 32.6932 23.6767 32.6789 24.9583 32.6218C26.2352 32.5646 27.1071 32.3597 27.8741 32.0643C28.665 31.7594 29.3321 31.3449 29.9991 30.6779C30.6661 30.0109 31.0758 29.3391 31.3855 28.553C31.6809 27.7906 31.8858 26.9188 31.943 25.6371C32.0001 24.3555 32.0144 23.9505 32.0144 20.6869C32.0144 17.4233 32.0001 17.0183 31.943 15.7367C31.8858 14.4598 31.6809 13.5879 31.3855 12.8208C31.0806 12.0299 30.6661 11.3629 29.9991 10.6959C29.3321 10.0289 28.6603 9.61913 27.8741 9.30944C27.1118 9.01405 26.2399 8.80918 24.9583 8.752C23.6719 8.6996 23.2622 8.6853 20.0033 8.6853Z" fill="white"/>
<path d="M20.0031 14.5265C16.6013 14.5265 13.8379 17.2851 13.8379 20.6917C13.8379 24.0982 16.5965 26.8568 20.0031 26.8568C23.4096 26.8568 26.1682 24.0982 26.1682 20.6917C26.1682 17.2851 23.4096 14.5265 20.0031 14.5265ZM20.0031 24.689C17.7924 24.689 16.0009 22.8976 16.0009 20.6869C16.0009 18.4762 17.7924 16.6848 20.0031 16.6848C22.2137 16.6848 24.0052 18.4762 24.0052 20.6869C24.0052 22.8976 22.2137 24.689 20.0031 24.689Z" fill="white"/>
<path d="M26.4113 15.7176C27.2059 15.7176 27.8501 15.0734 27.8501 14.2787C27.8501 13.484 27.2059 12.8398 26.4113 12.8398C25.6166 12.8398 24.9724 13.484 24.9724 14.2787C24.9724 15.0734 25.6166 15.7176 26.4113 15.7176Z" fill="white"/>
<defs>
<linearGradient id="paint0_linear_35_1501" x1="40" y1="20.6853" x2="2.52874e-07" y2="20.6853" gradientUnits="userSpaceOnUse">
<stop stop-color="#DF154C"/>
<stop offset="1" stop-color="#A70457"/>
</linearGradient>
</defs>
</svg>
